<svg width="28" height="28" viewBox="0 0 28 28" fill="none" xmlns="http://www.w3.org/2000/svg">
<path d="M22.4583 3.521H5.54166C3.77183 3.521 2.33333 4.96066 2.33333 6.73166V21.3092C2.33333 23.0802 3.77183 24.521 5.54166 24.521H22.4583C24.2282 24.521 25.6667 23.0802 25.6667 21.3092V6.73166C25.6667 4.96066 24.2282 3.521 22.4583 3.521ZM5.54166 5.271H22.4583C23.2633 5.271 23.9167 5.92433 23.9167 6.72933V7.56233L14.525 13.8238C14.2065 14.0338 13.7947 14.0362 13.475 13.8215L4.08333 7.56233V6.72933C4.08333 5.92433 4.73666 5.271 5.54166 5.271ZM22.4583 22.7687H5.54166C4.73666 22.7687 4.08333 22.1153 4.08333 21.3103V9.61333L12.53 15.2483C12.9768 15.547 13.489 15.6963 14 15.6963C14.5133 15.6963 15.0232 15.547 15.47 15.2495L23.9167 9.6145V21.3068C23.9167 22.1118 23.2633 22.7652 22.4583 22.7652V22.7687Z" fill="#F7F9F9"/>
</svg>
