<svg width="28" height="28" viewBox="0 0 28 28" fill="none" xmlns="http://www.w3.org/2000/svg">
<path d="M23.0417 25.6667H4.95833C3.51166 25.6667 2.33333 24.4883 2.33333 23.0417V4.95833C2.33333 3.51167 3.51166 2.33333 4.95833 2.33333H23.0417C24.4883 2.33333 25.6667 3.51167 25.6667 4.95833V23.0417C25.6667 24.4883 24.4883 25.6667 23.0417 25.6667ZM4.95833 4.08333C4.47533 4.08333 4.08333 4.4765 4.08333 4.95833V23.0417C4.08333 23.5235 4.47533 23.9167 4.95833 23.9167H23.0417C23.5247 23.9167 23.9167 23.5235 23.9167 23.0417V4.95833C23.9167 4.4765 23.5247 4.08333 23.0417 4.08333H4.95833Z" fill="#F7F9F9"/>
<path d="M19.8333 10.08H8.16666C7.68366 10.08 7.29166 9.68683 7.29166 9.205C7.29166 8.72316 7.68366 8.33 8.16666 8.33H19.8333C20.3163 8.33 20.7083 8.72083 20.7083 9.205C20.7083 9.68916 20.3163 10.08 19.8333 10.08ZM19.8333 14.875H8.16666C7.68366 14.875 7.29166 14.483 7.29166 14C7.29166 13.517 7.68366 13.125 8.16666 13.125H19.8333C20.3163 13.125 20.7083 13.517 20.7083 14C20.7083 14.483 20.3163 14.875 19.8333 14.875ZM14 19.67H8.16666C7.68366 19.67 7.29166 19.2792 7.29166 18.795C7.29166 18.3108 7.68366 17.92 8.16666 17.92H14C14.483 17.92 14.875 18.3132 14.875 18.795C14.875 19.2768 14.483 19.67 14 19.67Z" fill="#F7F9F9"/>
</svg>
