<svg width="28" height="28" viewBox="0 0 28 28" fill="none" xmlns="http://www.w3.org/2000/svg">
<path d="M14 13.7853C15.5808 13.7853 17.3507 13.6103 18.48 12.32C19.4297 11.235 19.7377 9.55733 19.4203 7.196C18.977 3.90017 16.9505 1.932 14 1.932C11.0495 1.932 9.023 3.90017 8.57966 7.19833C8.26233 9.55733 8.57033 11.235 9.52 12.32C10.6493 13.6115 12.4192 13.7853 14 13.7853ZM10.3133 7.42933C10.5023 6.02933 11.2315 3.682 14 3.682C16.7685 3.682 17.4977 6.0305 17.6867 7.42933C17.9282 9.23767 17.7532 10.4942 17.1617 11.1685C16.6308 11.7752 15.6847 12.0353 14 12.0353C12.3153 12.0353 11.3692 11.7752 10.8383 11.1685C10.2468 10.4942 10.0718 9.2365 10.3133 7.42933ZM23.66 22.442C22.6368 18.3283 18.6643 15.4537 14 15.4537C9.33566 15.4537 5.36316 18.3283 4.34 22.442C4.13933 23.2493 4.30733 24.0753 4.80083 24.7053C5.27683 25.312 6.01416 25.662 6.82266 25.662H21.1773C21.9858 25.662 22.7232 25.312 23.1992 24.7053C23.6938 24.0753 23.8607 23.2505 23.6588 22.442H23.66ZM21.8213 23.6273C21.6743 23.814 21.4527 23.9143 21.1773 23.9143H6.82266C6.5485 23.9143 6.32566 23.8152 6.17866 23.6273C6.01883 23.4243 5.96866 23.1467 6.03866 22.8643C6.867 19.5335 10.1418 17.206 14 17.206C17.8582 17.206 21.133 19.5323 21.9613 22.8643C22.0313 23.1467 21.9812 23.4243 21.8213 23.6273Z" fill="#F7F9F9"/>
</svg>
